inDegrees=no
num_controls=7
num_derivatives=13
num_iterations=109
num_multipliers=7
num_parameters=0
num_slacks=7
num_states=26
objective=0.445695
objective_accelerations=0.057014
objective_balance=0.003617
objective_effort=0.022992
objective_height=0.356497
objective_ligament=0.005575
solver_duration=1465.000711
status=Solve_Succeeded
success=true
DataType=double
version=3
OpenSimVersion=4.5
endheader
time	/jointset/ground_pelvis/pelvis_tilt/value	/jointset/ground_pelvis/pelvis_tx/value	/jointset/ground_pelvis/pelvis_ty/value	/jointset/hip_l/hip_flexion_l/value	/jointset/hip_l/hip_adduction_l/value	/jointset/hip_l/hip_rotation_l/value	/jointset/back/lumbar_extension/value	/jointset/patellofemoral_l/patellar_flexion_l/value	/jointset/knee_l/knee_flexion_l/value	/jointset/knee_l/knee_adduction_l/value	/jointset/knee_l/knee_rotation_l/value	/jointset/ankle_l/ankle_angle_l/value	/jointset/subtalar_l/subtalar_angle_l/value	/jointset/ground_pelvis/pelvis_tilt/speed	/jointset/ground_pelvis/pelvis_tx/speed	/jointset/ground_pelvis/pelvis_ty/speed	/jointset/hip_l/hip_flexion_l/speed	/jointset/hip_l/hip_adduction_l/speed	/jointset/hip_l/hip_rotation_l/speed	/jointset/back/lumbar_extension/speed	/jointset/patellofemoral_l/patellar_flexion_l/speed	/jointset/knee_l/knee_flexion_l/speed	/jointset/knee_l/knee_adduction_l/speed	/jointset/knee_l/knee_rotation_l/speed	/jointset/ankle_l/ankle_angle_l/speed	/jointset/subtalar_l/subtalar_angle_l/speed	/forceset/tau_hip_flexion_l	/forceset/tau_hip_adduction_l	/forceset/tau_hip_rotation_l	/forceset/tau_knee_flexion_l	/forceset/tau_ankle_angle_l	/forceset/tau_subtalar_angle_l	/forceset/tau_lumbar_extension	lambda_cid13_p0	lambda_cid13_p1	lambda_cid13_p2	lambda_cid13_p3	lambda_cid13_p4	lambda_cid13_p5	lambda_cid14_p0	/jointset/ground_pelvis/pelvis_tilt/accel	/jointset/ground_pelvis/pelvis_tx/accel	/jointset/ground_pelvis/pelvis_ty/accel	/jointset/hip_l/hip_flexion_l/accel	/jointset/hip_l/hip_adduction_l/accel	/jointset/hip_l/hip_rotation_l/accel	/jointset/back/lumbar_extension/accel	/jointset/patellofemoral_l/patellar_flexion_l/accel	/jointset/knee_l/knee_flexion_l/accel	/jointset/knee_l/knee_adduction_l/accel	/jointset/knee_l/knee_rotation_l/accel	/jointset/ankle_l/ankle_angle_l/accel	/jointset/subtalar_l/subtalar_angle_l/accel	gamma_cid13_p0	gamma_cid13_p1	gamma_cid13_p2	gamma_cid13_p3	gamma_cid13_p4	gamma_cid13_p5	gamma_cid14_p0
0.5	-0.3452966537989451	-0.0412634299350464	0.7605852417401985	1.102203191560932	-0.4369738059316299	-0.2237530144493815	-0.2541834041374052	0.7973697388456906	0.7973697388461176	-0.1327777936080383	-0.1583272739098456	0.09860663807078861	-0.03773178812747188	-0.7846853748709749	-0.2235893057047969	-0.5281781514933678	2.485331168891746	-0.2072953675309698	0.7454811733073268	-0.1169912605122245	1.964468730080257	1.964468730080257	0.1158099016766296	-0.08853820602694523	0.4317373518652044	-0.01791880782710013	-0.1719911419096647	0.01946644941505226	-0.01059932382077207	-0.2152831479711568	0.068403553706664	0.04528711314396512	0.1691416521788308	-10.86095325808914	-20.87621425976958	6.544342182416849	-6.314988697332546	-522.3833350462421	-63.40509000641594	-25.60811443535225	0.800050058995383	0.6039950361738649	-0.4554172699479508	-1.345978034462833	0.7444336796842038	-0.1924022579829722	1.085677014961828	-1.236772152872143	-1.236772152872096	0.09643388855882717	0.1709759291887269	-0.4806446143831986	0.5549655093614977	-5.385023385345088e-07	-5.038278821335965e-07	2.58829565698366e-06	1.173243892390036e-07	-6.13441196516013e-07	3.7594963037659e-08	-4.46033659269998e-07
0.51	-0.3531016294964248	-0.04346883571337851	0.7552818564244712	1.126984322282051	-0.439010663338977	-0.2163068676140319	-0.2553002188494148	0.8169494819401425	0.8169494819404023	-0.1316190066959148	-0.1592037158053992	0.1028988059833384	-0.03788509155277724	-0.7761977751357985	-0.2174706402220258	-0.5323849082904497	2.4705492979723	-0.2000630012487844	0.7436540089259818	-0.1064128089085149	1.951212410684223	1.951212410684278	0.115930979191953	-0.08673831476161466	0.4266247106101969	-0.01275543734993243	-0.1774659670347335	0.02014949857861539	-0.01071920926193544	-0.2180640667256721	0.06822611292526458	0.0456797137339393	0.1733205388782804	-11.12017710569321	-20.98410165830223	6.541859856267406	-6.313130346238493	-525.9885371775804	-63.03487362124012	-24.70823305254332	0.8898507728422841	0.6190085919300906	-0.386321230501222	-1.596216901065126	0.7143343819210695	-0.1923707746458486	1.037760180245686	-1.410097760482959	-1.410097760474745	-0.03250385230261485	0.1867874931493424	-0.5372994662258017	0.4947635219231029	-5.070160524999421e-07	-4.08205648001159e-07	2.521719340453915e-06	1.279091802101535e-07	-5.697780771526688e-07	1.021885091928077e-07	-4.242271480142709e-07
0.52	-0.3608183820281389	-0.04561241357936265	0.7499398002715907	1.151607249237898	-0.4409748578276153	-0.2088818918717827	-0.2563124828559532	0.8363886546551323	0.8363886546552238	-0.1304594987157054	-0.1600617004347065	0.1071377023663051	-0.03798721313230518	-0.7670407417180845	-0.2112237232352025	-0.5359123189240462	2.453690415837668	-0.192762783789185	0.7412469546872141	-0.09608111941799957	1.936354654187633	1.936354654187743	0.1159541152944088	-0.08484675277851984	0.4210830459485389	-0.007682438671616714	-0.1829407921598084	0.02083254774217933	-0.01083909470313369	-0.2208449854801842	0.06804867214386681	0.04607231432391573	0.1774994255777234	-11.38289285068915	-21.09232688505956	6.540517218159426	-6.343692973834687	-529.6748112778251	-62.72150490664625	-23.80946183086498	0.9339367955028928	0.629645336984308	-0.3195480372508885	-1.761380277500064	0.7580039151670155	-0.3083802294675028	1.036324592322996	-1.557059572983214	-1.557059572983239	0.07684560598532736	0.1893100727415706	-0.5664492957132733	0.5368911495911028	-4.888494364934858e-07	-3.517143040028699e-07	2.49787668724833e-06	1.355380986245912e-07	-5.405373028795075e-07	1.625127654744325e-07	-4.146710565089177e-07
0.53	-0.3684403860395605	-0.04769298204784613	0.7445658731116822	1.176051609234589	-0.4428656689698901	-0.2014837968543492	-0.2572226893964934	0.8556715017533602	0.8556715017532943	-0.1293000507676768	-0.1609002944414451	0.1113191349530077	-0.03803896118384677	-0.7572543897865367	-0.2048781085921648	-0.5387570076380263	2.434853913298707	-0.1853893457367114	0.7382719025441875	-0.08601506375322179	1.919962946704736	1.919962946704718	0.1159310206978073	-0.08286367121599039	0.4151364415937615	-0.002681476264823787	-0.1883698141039403	0.02137777063925938	-0.01090044574494378	-0.2234996352122131	0.06761205369086397	0.0463660802067052	0.1815871288003012	-11.72894546791756	-21.1383112916512	6.523852778219535	-6.214442955549903	-533.2969543219504	-62.35035852660013	-22.9130773545427	1.016773800487724	0.638826717411322	-0.2496185112265591	-1.994007223922096	0.7282482747318653	-0.3074365003689869	0.9835147940697014	-1.717917218579938	-1.717917218599089	-0.04252314369609964	0.2045679085248706	-0.6188115743626065	0.4793147852139635	-4.724832523129499e-07	-2.767284505784178e-07	2.498530096614543e-06	1.526319306959785e-07	-5.179902019831879e-07	2.242599125504129e-07	-4.044874415855586e-07
0.54	-0.3759613686499641	-0.04970973293200966	0.7391669612200827	1.200297759809526	-0.4446824988267514	-0.1941185261170758	-0.2580338816322825	0.8747828936002315	0.8747828936000069	-0.1281409609958573	-0.1617187054904548	0.115439092382362	-0.03804117641152231	-0.7468364615147109	-0.1984602063712155	-0.5409092652622028	2.414048531486623	-0.177966526706465	0.7346820986552114	-0.07627825846786368	1.902063603916359	1.902063603916213	0.1158824800526774	-0.08081016123281178	0.4087880144788795	0.002224126101592239	-0.1937988360480703	0.02192299353633981	-0.01096179678675835	-0.226154284944241	0.06717543523786154	0.04665984608949545	0.1856748320228808	-12.07925458615335	-21.18420452877901	6.507922522508216	-6.112595750314797	-537.0107185183103	-62.03614142436608	-22.02083391259193	1.06025206355847	0.6441028525666337	-0.1810618192901949	-2.155156132124811	0.7678801107215733	-0.4313305786573928	0.9704745164390645	-1.858586634079399	-1.858586634079426	0.07175639627963901	0.2033957568713943	-0.6468138477341518	0.5178191415157224	-4.581090352589646e-07	-1.812805867250193e-07	2.526285532655935e-06	1.801975821325016e-07	-5.028488673761397e-07	2.875813217818505e-07	-3.936095454337674e-07
